<?xml version="1.0" standalone="no"?>
<!DOCTYPE svg PUBLIC "-//W3C//DTD SVG 20010904//EN"
 "http://www.w3.org/TR/2001/REC-SVG-20010904/DTD/svg10.dtd">
<svg version="1.0" xmlns="http://www.w3.org/2000/svg"
 width="100" height="100" viewBox="165 280 700.000000 465.000000"
 preserveAspectRatio="xMidYMid meet">

<g transform="translate(0.000000,1024.000000) scale(0.100000,-0.100000)"
fill="#FFF" stroke="none">
<path d="M4658 7369 c-16 -4 -39 -16 -52 -26 -13 -10 -82 -64 -155 -121 l-131
-103 0 -42 c1 -96 108 -142 182 -79 18 16 71 58 118 94 147 115 160 129 160
181 0 52 -21 83 -65 96 -16 4 -42 4 -57 0z"/>
<path d="M5048 7251 c-15 -5 -83 -55 -150 -111 -204 -168 -208 -172 -208 -209
0 -57 42 -110 88 -111 37 0 80 27 205 132 112 95 119 99 140 85 12 -8 99 -72
193 -143 94 -71 218 -165 277 -209 58 -44 106 -84 107 -88 0 -5 -22 -29 -49
-53 -64 -58 -93 -124 -99 -230 -5 -86 6 -139 39 -186 11 -14 19 -29 19 -32 0
-3 -218 -6 -483 -6 l-484 0 26 52 c23 47 26 65 26 158 0 98 -2 109 -30 159
-16 29 -49 71 -74 92 -42 38 -43 40 -25 54 10 8 22 15 26 15 15 0 48 69 48 99
0 46 -47 91 -93 91 -37 0 -72 -21 -177 -104 -36 -29 -114 -88 -175 -131 -60
-44 -180 -132 -265 -195 -85 -64 -213 -158 -284 -210 -415 -306 -564 -419
-583 -443 -28 -36 -38 -119 -24 -199 40 -226 260 -389 472 -350 30 6 62 13 71
17 15 6 17 -10 20 -188 3 -171 5 -197 21 -215 35 -39 114 -33 155 11 21 23 22
27 22 436 l1 413 42 -8 c83 -17 188 -11 239 15 97 49 167 146 176 243 l5 49
66 -6 c36 -4 86 -2 111 4 24 5 46 8 49 5 8 -8 -77 -168 -159 -299 -129 -205
-134 -217 -134 -310 0 -72 3 -86 34 -143 37 -70 95 -124 156 -146 63 -22 209
-29 282 -13 l62 14 0 -59 0 -58 -180 0 c-230 0 -250 -8 -250 -100 0 -30 6 -43
26 -59 27 -21 31 -21 796 -18 l770 2 24 28 c26 31 31 66 12 100 -23 44 -34 46
-230 47 l-188 0 0 64 0 65 35 -15 c82 -34 253 -26 335 16 55 28 109 86 139
150 20 44 25 70 25 131 0 85 -1 86 -144 319 -80 129 -140 244 -140 265 0 6 43
10 109 10 l109 0 7 -39 c16 -104 110 -221 205 -257 45 -17 67 -20 125 -15 39
4 83 8 100 9 l29 2 -3 -397 c-2 -346 0 -400 13 -427 20 -37 44 -51 91 -51 92
0 105 32 105 256 0 164 1 176 18 169 9 -4 43 -12 75 -18 144 -27 306 51 397
193 64 99 89 254 56 335 -14 33 -242 207 -1338 1021 -68 50 -237 179 -377 285
-139 107 -268 204 -285 216 -35 26 -107 37 -148 24z m-614 -796 c61 -29 104
-115 91 -183 -20 -109 -148 -162 -255 -107 -37 19 -72 77 -73 122 -1 31 6 42
48 81 53 46 133 102 148 102 5 0 24 -7 41 -15z m1480 -15 c75 -48 146 -119
146 -147 0 -38 -36 -99 -72 -121 -144 -89 -307 42 -243 196 24 57 70 99 111
101 5 1 31 -13 58 -29z m-1865 -326 c59 -118 45 -216 -39 -263 -104 -58 -240
15 -240 129 0 27 7 43 28 62 50 47 195 149 206 145 6 -2 26 -35 45 -73z m2311
0 c55 -41 104 -84 110 -94 38 -71 -29 -175 -120 -187 -131 -18 -223 82 -185
201 22 71 66 156 80 156 8 0 59 -34 115 -76z m-1159 -509 c27 -159 49 -300 49
-312 0 -27 -73 -73 -116 -73 -41 0 -95 17 -122 38 l-23 18 51 304 c29 167 54
308 57 313 3 4 16 7 30 5 26 -3 26 -4 74 -293z m-1618 -188 c-60 -65 -177 -70
-264 -11 -44 30 -87 105 -95 166 l-6 45 143 103 c79 58 164 120 189 138 l45
35 3 -228 c2 -206 1 -230 -15 -248z m1317 469 c0 -17 -93 -452 -104 -491 -22
-71 -49 -110 -97 -142 -38 -25 -51 -28 -128 -28 -73 0 -93 4 -128 24 -40 23
-73 70 -73 103 0 8 37 71 83 140 45 68 114 186 152 261 l70 137 113 0 c61 0
112 -2 112 -4z m728 -120 c62 -122 176 -317 213 -365 31 -39 25 -84 -16 -124
-80 -78 -227 -72 -311 11 -50 50 -63 91 -133 436 -17 82 -31 152 -31 157 0 5
49 9 108 9 l108 0 62 -124z m1096 76 c33 -26 102 -76 151 -111 154 -108 159
-116 130 -202 -20 -58 -67 -114 -116 -139 -57 -29 -140 -27 -196 5 l-43 26 0
234 c0 129 3 235 6 235 4 0 34 -22 68 -48z m-1727 -781 c90 -45 211 -35 291
25 l32 25 0 -75 0 -76 -200 0 -200 0 0 77 c0 72 1 75 18 61 9 -9 36 -25 59
-37z"/>
<path d="M4995 6816 c-64 -30 -125 -89 -156 -152 -20 -41 -24 -64 -24 -139 0
-78 4 -97 27 -141 40 -77 72 -110 140 -143 81 -41 186 -44 263 -7 142 68 216
235 171 389 -21 72 -96 156 -171 192 -74 34 -178 35 -250 1z m183 -166 c123
-75 78 -260 -63 -260 -77 0 -138 66 -137 146 2 104 113 167 200 114z"/>
<path d="M5613 4658 c-6 -7 -99 -245 -208 -528 -108 -283 -199 -519 -202 -523
-3 -4 46 -6 109 -5 l113 3 37 110 37 110 203 0 202 0 15 -40 c8 -22 27 -74 43
-116 l28 -76 107 -6 c58 -4 108 -5 110 -3 2 2 -6 25 -18 52 -23 54 -172 448
-299 795 l-83 227 -51 6 c-80 9 -133 7 -143 -6z m166 -463 c39 -109 71 -203
71 -208 0 -10 -276 -4 -286 6 -3 3 24 88 59 188 75 212 78 221 83 217 1 -2 35
-93 73 -203z"/>
<path d="M4330 4120 l0 -541 103 3 102 3 3 203 2 202 84 0 83 0 45 -77 c24
-43 73 -131 109 -195 l64 -117 118 -1 c64 0 117 2 117 4 0 8 -190 326 -223
375 -28 42 -29 45 -13 55 95 57 148 119 172 205 45 153 -41 324 -191 380 -94
35 -145 41 -366 41 l-209 0 0 -540z m493 352 c18 -10 42 -34 55 -53 21 -29 23
-44 20 -106 -6 -131 -56 -166 -237 -167 l-116 -1 -3 165 c-1 90 0 171 3 179 9
22 235 9 278 -17z"/>
<path d="M6337 4643 c-9 -8 -9 -1026 -1 -1047 5 -13 25 -16 110 -16 l104 0 -7
380 c-3 209 -4 380 -1 380 4 0 29 -73 58 -162 28 -90 85 -258 126 -374 41
-115 74 -215 74 -221 0 -16 16 -19 116 -22 l91 -3 21 49 c54 127 230 619 234
658 2 11 5 -146 8 -350 l5 -370 103 -3 102 -3 0 520 0 519 -32 6 c-37 6 -237
10 -242 5 -1 -2 -24 -67 -50 -144 -53 -152 -233 -636 -241 -643 -8 -8 -25 41
-158 433 -69 204 -128 377 -131 386 -6 13 -29 17 -113 23 -134 8 -168 8 -176
-1z"/>
<path d="M3645 4629 c-129 -19 -259 -117 -318 -242 -85 -180 -88 -430 -6 -602
88 -186 295 -264 517 -193 135 43 236 155 278 309 21 79 29 270 15 356 -43
254 -244 407 -486 372z m130 -160 c60 -17 119 -82 140 -153 24 -81 18 -380 -8
-440 -44 -101 -108 -146 -207 -146 -102 0 -157 37 -202 135 -21 46 -23 64 -23
220 0 140 3 179 19 223 44 127 162 194 281 161z"/>
<path d="M2663 4573 l-23 -4 0 -521 0 -521 98 7 c53 3 160 8 237 11 77 3 164
8 193 11 l52 5 0 81 0 81 -107 -7 c-60 -4 -145 -9 -190 -13 l-83 -6 0 442 0
441 -77 -1 c-43 -1 -88 -4 -100 -6z"/>
<path d="M7941 4343 c-41 -109 -128 -331 -193 -493 -65 -162 -121 -303 -125
-312 -5 -16 4 -18 105 -18 l111 0 19 53 c11 28 25 70 32 92 7 22 15 43 19 46
3 3 98 1 210 -5 l204 -11 36 -115 37 -115 104 -12 c57 -7 106 -10 108 -8 3 2
-42 129 -98 282 -101 275 -172 469 -254 693 l-41 115 -100 3 -101 3 -73 -198z
m254 -276 c37 -109 66 -199 64 -201 -2 -2 -68 -1 -146 2 -95 3 -143 9 -143 16
0 24 144 396 151 389 3 -5 37 -97 74 -206z"/>
<path d="M1950 4525 c-14 -2 -78 -7 -142 -11 l-118 -6 0 -535 0 -535 93 8 c50
3 95 8 100 11 4 2 7 91 7 197 l0 193 46 7 c26 3 70 6 98 6 208 0 362 84 415
225 52 136 20 287 -76 360 -76 58 -141 77 -278 80 -66 2 -131 2 -145 0z m250
-181 c42 -24 70 -75 70 -129 0 -138 -69 -186 -282 -199 l-98 -6 0 174 0 175
48 4 c111 10 227 2 262 -19z"/>
<path d="M4300 3431 c-108 -33 -160 -113 -126 -194 19 -45 67 -81 168 -123 96
-41 128 -67 128 -105 0 -47 -30 -71 -92 -77 -67 -5 -93 7 -116 56 -16 35 -20
37 -62 37 -56 0 -60 -15 -23 -73 39 -60 106 -92 192 -92 109 1 182 47 197 126
15 83 -39 145 -169 194 -94 35 -137 69 -137 105 0 81 164 101 194 24 10 -27
14 -29 64 -29 51 0 53 1 46 23 -20 66 -56 103 -123 125 -38 13 -103 14 -141 3z"/>
<path d="M5018 3323 l-3 -118 -122 -3 -123 -3 0 116 0 115 -50 0 -50 0 0 -285
0 -285 50 0 49 0 3 133 3 132 120 0 120 0 3 -132 3 -133 43 0 44 0 7 183 c3
100 5 229 3 287 l-3 105 -47 3 -47 3 -3 -118z"/>
<path d="M5370 3423 c-46 -19 -97 -68 -123 -118 -25 -48 -35 -197 -18 -262 16
-60 70 -134 116 -161 34 -19 52 -22 116 -20 91 4 143 32 184 102 48 82 51 266
6 355 -52 101 -178 148 -281 104z m155 -87 c48 -31 60 -71 60 -191 0 -116 -10
-149 -54 -189 -29 -26 -107 -28 -145 -3 -45 30 -69 98 -68 192 0 108 31 182
87 206 28 12 91 4 120 -15z"/>
<path d="M5800 3145 l0 -285 50 0 50 0 0 115 0 115 93 0 c106 0 157 18 200 69
23 28 27 41 27 94 -1 69 -12 95 -53 127 -47 37 -110 50 -244 50 l-123 0 0
-285z m306 172 c23 -27 31 -68 18 -102 -12 -30 -60 -45 -144 -45 l-80 0 0 91
0 91 91 -4 c85 -3 92 -5 115 -31z"/>
</g>
</svg>
