<?xml version="1.0" standalone="no"?>
<!DOCTYPE svg PUBLIC "-//W3C//DTD SVG 20010904//EN"
 "http://www.w3.org/TR/2001/REC-SVG-20010904/DTD/svg10.dtd">
<svg version="1.0" xmlns="http://www.w3.org/2000/svg"
 width="1024" height="1024" viewBox="290 285 450.000000 450.000000"
 preserveAspectRatio="xMidYMid meet" style="background-color: #393E46">

<g transform="translate(0.000000,1024.000000) scale(0.100000,-0.100000)"
fill="#EEEEEE" stroke="none">
<path d="M4010 7073 c-31 -36 -433 -453 -700 -726 -69 -70 -131 -141 -139
-156 -18 -38 -7 -91 25 -122 24 -23 32 -24 185 -27 l159 -3 0 -1426 0 -1425
34 -34 34 -34 1500 0 c930 0 1510 4 1526 10 14 5 33 21 43 37 17 26 18 99 21
1450 l2 1423 123 0 c203 1 238 11 258 78 8 29 8 44 -3 69 -7 18 -164 186 -348
375 -184 189 -379 389 -434 446 l-100 102 -1077 0 -1077 0 -32 -37z m2407
-489 c169 -173 310 -319 311 -325 2 -5 -611 -9 -1609 -9 l-1614 0 100 103 c55
56 199 202 320 325 l220 222 982 0 981 0 309 -316z m-2147 -871 c0 -308 -2
-331 -21 -373 -93 -206 -377 -214 -476 -12 l-28 57 -3 328 -3 327 265 0 266 0
0 -327z m743 0 c-4 -325 -4 -328 -29 -380 -65 -135 -225 -187 -360 -118 -62
33 -115 97 -134 163 -6 22 -10 167 -10 350 l0 312 269 0 269 0 -5 -327z m737
5 c0 -319 0 -324 -24 -374 -98 -210 -365 -216 -474 -10 l-27 51 -3 328 -3 327
265 0 266 0 0 -322z m740 9 c0 -347 -5 -382 -60 -450 -124 -149 -365 -118
-446 57 -23 50 -24 56 -24 379 l0 327 265 0 265 0 0 -313z m-1277 -668 c188
-139 421 -126 581 33 l58 59 64 -61 c34 -33 87 -71 116 -85 145 -66 334 -47
431 43 l27 26 0 -872 0 -872 -240 2 -241 3 -145 260 c-80 143 -243 436 -361
650 -119 215 -237 426 -262 470 -51 87 -82 111 -131 100 -62 -14 -72 -29 -273
-400 -71 -133 -365 -659 -476 -855 -39 -69 -83 -149 -99 -177 l-27 -53 -247 0
-248 0 0 248 c0 137 3 526 7 864 l6 616 40 -29 c73 -53 197 -77 297 -59 99 18
166 55 238 128 34 36 62 60 62 55 0 -25 109 -116 179 -151 71 -35 80 -37 170
-36 74 1 109 6 153 23 74 28 169 98 197 145 l23 36 29 -40 c16 -22 48 -54 72
-71z m-60 -611 c14 -24 132 -236 262 -473 131 -236 264 -476 296 -532 33 -56
59 -104 59 -107 0 -4 -290 -6 -645 -6 -355 0 -645 4 -645 8 0 5 45 89 101 188
56 98 191 341 301 539 210 378 237 425 243 425 2 0 15 -19 28 -42z"/>
<path d="M5051 3994 c-64 -45 -58 -154 11 -190 49 -25 96 -18 134 20 28 28 34
42 34 76 0 23 -5 50 -10 61 -25 45 -123 65 -169 33z"/>
</g>
</svg>
